<?xml version="1.0" encoding="utf-8"?>
<!-- Generator: Adobe Illustrator 18.1.0, SVG Export Plug-In . SVG Version: 6.00 Build 0)  -->
<svg version="1.1" style="max-height: 100%" id="Layer_1" xmlns="http://www.w3.org/2000/svg" xmlns:xlink="http://www.w3.org/1999/xlink" x="0px" y="0px"
	 viewBox="0 0 93 25.6" width="93" height="26" enable-background="new 0 0 93 25.6" xml:space="preserve">
<path fill="#D60057" d="M16,19.4H9.9c-1,0-1.5-0.4-1.5-1.4c0-0.9,0.6-1.3,1.6-1.3h4.9L10.6,6.5L3,24.3l0,0.1
	c-0.5,1.1-1.2,1.5-2.1,1.1c-0.8-0.4-1-1.2-0.7-2.2l8.4-19l0.8-1.8c0.3-0.5,0.7-0.9,1.3-0.9c0.6,0,1,0.4,1.3,0.9l0.8,1.8l8.4,19
	c0.4,1,0.1,1.8-0.7,2.2c-0.9,0.4-1.6,0-2.1-1.1l0-0.1L16,19.4z M83.4,16.5c0-0.7,0.5-1.2,1.3-1.3h5.6v-0.1c0-2.6-1.9-4.8-4.3-4.8
	c-4,0-5.2,3.5-5.2,6.5c0.1,3.1,2.1,6.2,5.2,6.2c2,0,3.6-1.2,4.4-2c0.7-0.7,1.6-0.9,2.2-0.3c0.6,0.7,0.4,1.6-0.4,2.4
	c-1.6,1.6-3.5,2.5-6.2,2.5c-4.6,0-8-3.6-8-8.8c0-5.2,3-9,7.9-9c4.4,0,7.1,3.2,7.1,8.1c0,0.7-0.5,1.8-1.7,1.8h-6.5
	C83.8,17.7,83.4,17.2,83.4,16.5 M64.7,9.7l0,1c1-1.8,3.2-2.9,5.2-2.9c4.4,0,5.7,3.1,5.7,7.2v8.6c0,1.2-0.5,1.9-1.4,1.9
	c-0.9,0-1.4-0.7-1.4-1.9l0-8.2c0-2.9-0.4-5-3.7-5c-4.1,0-4.3,3.8-4.3,6.9l0,6.3c0,1.2-0.5,1.9-1.4,1.9c-0.9,0-1.4-0.7-1.4-1.9
	l0-13.9c0-1.2,0.5-1.9,1.4-1.9C64.2,7.9,64.7,8.6,64.7,9.7 M58.2,9.7v13.9c0,1.2-0.5,1.9-1.4,1.9c-0.9,0-1.4-0.7-1.4-1.9v-14
	c0-1.2,0.5-1.8,1.4-1.8C57.7,7.9,58.2,8.6,58.2,9.7 M20.4,8c-0.8,0.4-1,1.2-0.6,2.3l6.3,14.2c0.3,0.6,0.7,1,1.3,1
	c0.6,0,1.1-0.4,1.3-1L35,10.4c0.4-1.1,0.2-2-0.6-2.4c-0.8-0.4-1.6,0-2.1,1.2l-4.9,11.6L22.5,9.3C22,8,21.2,7.6,20.4,8 M54.9,2
	c0-1.1,0.9-2,1.9-2c1,0,1.9,0.9,1.9,2c0,1-0.8,1.9-1.9,1.9C55.7,3.8,54.9,3,54.9,2 M49.7,16.7c0,3.3-2.4,6.2-5.5,6.2
	c-3.1,0-5.5-2.9-5.5-6.2c0-3.3,2.4-6.1,5.5-6.1C47.3,10.6,49.7,13.4,49.7,16.7 M52.5,16.7c0-5-3.6-8.9-8.2-8.9
	c-4.6,0-8.2,3.9-8.2,8.9c0,5,3.6,8.9,8.2,8.9C48.9,25.6,52.5,21.8,52.5,16.7"/>
</svg>
