<?xml version="1.0" encoding="utf-8"?>
<!-- Generator: Adobe Illustrator 16.0.4, SVG Export Plug-In . SVG Version: 6.00 Build 0)  -->
<!DOCTYPE svg PUBLIC "-//W3C//DTD SVG 1.1//EN" "http://www.w3.org/Graphics/SVG/1.1/DTD/svg11.dtd">
<svg version="1.1" id="Layer_1" xmlns="http://www.w3.org/2000/svg" xmlns:xlink="http://www.w3.org/1999/xlink" x="0px" y="0px"
	 width="170px" height="62.344px" viewBox="0 0 170 62.344" enable-background="new 0 0 170 62.344" xml:space="preserve">
<g>
	<defs>
		<rect id="SVGID_1_" width="170" height="62.344"/>
	</defs>
	<clipPath id="SVGID_2_">
		<use xlink:href="#SVGID_1_"  overflow="visible"/>
	</clipPath>
	<path clip-path="url(#SVGID_2_)" fill="#464646" d="M169.99,58.904V24.506c-0.028-0.374-0.319-0.673-0.687-0.676h-0.452v-0.007
		h-1.66v0.004h-0.701c-0.01,0-0.017-0.002-0.025-0.002c-0.393,0-0.706,0.299-0.723,0.673v32.211
		c0.049,0.249,0.201,0.921,0.482,1.381c0.352,0.57,1.168,1.496,1.168,1.496l-0.174,0.174c0,0-0.922-0.821-1.492-1.172
		c-0.488-0.301-1.223-0.453-1.426-0.492H5.687c-0.202,0.039-0.936,0.191-1.425,0.492c-0.571,0.351-1.496,1.169-1.496,1.169
		l-0.175-0.176c0,0,0.822-0.921,1.172-1.491c0.286-0.466,0.438-1.147,0.485-1.389V5.674C4.201,5.434,4.049,4.75,3.763,4.286
		c-0.35-0.57-1.168-1.497-1.168-1.497L2.77,2.615c0,0,0.921,0.821,1.492,1.172c0.436,0.269,1.067,0.419,1.343,0.477h139.789
		c0.388-0.016,0.698-0.316,0.701-0.691h0.001V3.119h0.01V1.475h-0.008V0.771c0.001-0.008,0.003-0.016,0.003-0.024
		c0-0.4-0.312-0.725-0.696-0.728V0.019h-0.453V0.016H3.501C1.57,0.016,0,1.559,0,3.454v55.45c0,1.896,1.57,3.439,3.501,3.439H166.49
		C168.42,62.344,169.99,60.801,169.99,58.904"/>
	<path clip-path="url(#SVGID_2_)" fill="#F18700" d="M151.336,20.518c0.276,0.276,0.711,0.285,0.989,0.031l13.394-13.393v0.002v11.8
		c0.027,0.374,0.318,0.671,0.686,0.674l2.84,0.003c0.008,0,0.016,0.002,0.024,0.002c0.392,0,0.707-0.299,0.723-0.672l0.007-18.218
		c0-0.008,0.002-0.016,0.002-0.025c0-0.391-0.3-0.705-0.673-0.722h-18.286c-0.375,0.027-0.673,0.319-0.676,0.687
		c0,0-0.005,2.855-0.005,2.863c0,0.393,0.299,0.706,0.672,0.724h11.589l-13.295,13.268c-0.246,0.285-0.252,0.703,0.006,0.965l0,0
		C149.332,18.506,151.33,20.511,151.336,20.518"/>
	<path clip-path="url(#SVGID_2_)" fill="#464646" d="M34.249,17.799c5.214,0,7.99,1.844,9.829,5.533
		c0.337,0.65,0.15,0.976-0.525,1.266l-1.576,0.688c-0.676,0.289-0.938,0.181-1.276-0.471c-1.275-2.387-3.038-3.652-6.452-3.652
		c-4.089,0-6.265,1.41-6.265,4.087c0,3.218,3.451,3.761,7.203,4.159c4.464,0.506,9.416,1.445,9.416,7.305
		c0,4.772-3.639,7.847-10.392,7.847c-5.627,0-8.59-2.097-10.241-6.183c-0.263-0.688-0.075-0.978,0.638-1.23l1.538-0.543
		c0.675-0.216,0.975-0.107,1.275,0.579c1.201,2.676,3.414,4.087,6.79,4.087c4.427,0,6.753-1.411,6.753-4.484
		c0-3.11-3.151-3.653-6.64-4.051c-4.614-0.47-10.054-1.193-10.054-7.269C24.27,20.944,27.758,17.799,34.249,17.799"/>
	<path clip-path="url(#SVGID_2_)" fill="#464646" d="M102.204,17.799c5.501,0,8.545,2.17,9.865,6.147
		c0.22,0.688,0.073,0.977-0.624,1.229l-1.504,0.507c-0.696,0.217-0.989,0.108-1.246-0.579c-0.917-2.712-2.824-4.05-6.491-4.05
		c-4.364,0-6.711,2.169-6.711,5.967v8.318c0,3.761,2.384,5.967,6.711,5.967c3.74,0,5.61-1.411,6.528-4.123
		c0.256-0.723,0.55-0.868,1.246-0.615l1.504,0.543c0.697,0.218,0.88,0.542,0.623,1.229c-1.32,3.978-4.327,6.22-9.901,6.22
		c-6.601,0-10.269-3.544-10.269-9.257v-8.246C91.936,21.343,95.566,17.799,102.204,17.799"/>
	<path clip-path="url(#SVGID_2_)" fill="#464646" d="M117.058,18.341h1.614c0.732,0,0.99,0.253,0.99,0.94v23.797
		c0,0.687-0.258,0.939-0.99,0.939h-1.614c-0.697,0-0.953-0.253-0.953-0.939V19.281C116.104,18.594,116.36,18.341,117.058,18.341"/>
	<path clip-path="url(#SVGID_2_)" fill="#464646" d="M134.349,21.523h-0.226c-0.037,0.072-0.037,1.699-0.636,3.363l-3.78,9.548
		h9.059l-3.743-9.512C134.424,23.223,134.349,21.596,134.349,21.523 M145.354,44.018h-1.46c-1.235,0-1.572-0.181-1.798-0.832
		l-2.319-5.894h-11.08l-2.321,5.894c-0.262,0.651-0.599,0.832-1.797,0.832h-1.31c-0.749,0-0.899-0.325-0.675-0.939l9.732-24.014
		c0.225-0.65,0.525-0.796,1.236-0.796h1.497c0.711,0,1.011,0.146,1.235,0.759l9.732,24.051
		C146.252,43.692,146.103,44.018,145.354,44.018"/>
	<path clip-path="url(#SVGID_2_)" fill="#464646" d="M52.215,22.229c0-0.491,0.169-0.638,0.629-0.638h0.919
		c0.209,0,0.4,0.003,0.593,0.005h4.854c3.216,0,5.162,1.845,5.162,4.955c0,3.079-1.909,4.844-5.068,4.879h-6.172h-0.288
		c-0.445,0-0.614-0.146-0.625-0.598 M52.215,35.333c0-0.49,0.169-0.639,0.629-0.639h0.919c0.001,0,0.003,0,0.004,0h5.876v-0.01
		c5.254-0.038,8.507-3.067,8.507-8.134c0-5.135-3.33-8.209-8.604-8.209h-9.987c-0.711,0-0.973,0.253-0.973,0.939v23.796
		c0,0.688,0.262,0.94,0.973,0.94h1.646c0.748,0,1.01-0.253,1.01-0.94"/>
	<path clip-path="url(#SVGID_2_)" fill="#464646" d="M75.766,29.369c-0.46,0-0.629-0.147-0.629-0.639v-6.491
		c0-0.49,0.169-0.639,0.629-0.639l11.511-0.005c0.734,0,0.953-0.253,0.953-0.939v-1.374c0-0.688-0.219-0.941-0.953-0.941H72.535
		c-0.697,0-0.954,0.253-0.954,0.941v23.796c0,0.687,0.257,0.939,0.954,0.939h15.182c0.734,0,0.955-0.253,0.955-0.939v-1.375
		c0-0.688-0.221-0.94-0.955-0.94H75.766c-0.46,0-0.629-0.146-0.629-0.638l0.002-4.379h-0.002v-2.484c0-0.49,0.159-0.638,0.618-0.638
		l9.835,0.002c0.733,0,0.955-0.217,0.955-0.94v-1.338c0-0.723-0.222-0.977-0.955-0.977"/>
	<path clip-path="url(#SVGID_2_)" fill="#464646" d="M150.82,20.005"/>
</g>
</svg>
